<mxfile host="app.diagrams.net" modified="2024-07-03T15:53:09.477Z" agent="Mozilla/5.0 (X11; Linux x86_64; rv:127.0) Gecko/20100101 Firefox/127.0" etag="qR_IKq84b7y7yD0dQJ2n" version="24.6.4" type="github">
  <diagram name="Page-1" id="AEIL04DYalZQLNeuRNgX">
    <mxGraphModel dx="1380" dy="1867" grid="1" gridSize="10" guides="1" tooltips="1" connect="1" arrows="1" fold="1" page="1" pageScale="1" pageWidth="850" pageHeight="1100" math="0" shadow="0">
      <root>
        <mxCell id="0" />
        <mxCell id="1" parent="0" />
        <mxCell id="k9SnBp9OJjfPiYTVRjjW-1" value="" style="rounded=1;whiteSpace=wrap;html=1;container=0;fontColor=#CC0000;" vertex="1" parent="1">
          <mxGeometry x="626.4506283662478" y="-1018" width="191.79937163375223" height="334.56759322033895" as="geometry" />
        </mxCell>
        <mxCell id="k9SnBp9OJjfPiYTVRjjW-2" style="edgeStyle=orthogonalEdgeStyle;rounded=0;orthogonalLoop=1;jettySize=auto;html=1;exitX=1;exitY=0.5;exitDx=0;exitDy=0;entryX=0;entryY=0.5;entryDx=0;entryDy=0;endArrow=block;endFill=1;" edge="1" parent="1" source="k9SnBp9OJjfPiYTVRjjW-3" target="k9SnBp9OJjfPiYTVRjjW-1">
          <mxGeometry relative="1" as="geometry" />
        </mxCell>
        <mxCell id="k9SnBp9OJjfPiYTVRjjW-3" value="" style="rounded=1;whiteSpace=wrap;html=1;container=0;fontColor=#CC0000;" vertex="1" parent="1">
          <mxGeometry x="15" y="-1018" width="552.3245062836625" height="334.56759322033895" as="geometry" />
        </mxCell>
        <mxCell id="k9SnBp9OJjfPiYTVRjjW-4" style="rounded=0;orthogonalLoop=1;jettySize=auto;html=1;exitX=1;exitY=1;exitDx=0;exitDy=0;entryX=0.5;entryY=0;entryDx=0;entryDy=0;endArrow=blockThin;endFill=1;" edge="1" parent="1" source="k9SnBp9OJjfPiYTVRjjW-6" target="k9SnBp9OJjfPiYTVRjjW-9">
          <mxGeometry relative="1" as="geometry" />
        </mxCell>
        <mxCell id="k9SnBp9OJjfPiYTVRjjW-5" value="{5}" style="edgeLabel;html=1;align=center;verticalAlign=middle;resizable=0;points=[];fontSize=12;fontColor=#000000;" vertex="1" connectable="0" parent="k9SnBp9OJjfPiYTVRjjW-4">
          <mxGeometry x="-0.2944" relative="1" as="geometry">
            <mxPoint y="1" as="offset" />
          </mxGeometry>
        </mxCell>
        <mxCell id="k9SnBp9OJjfPiYTVRjjW-6" value="R" style="ellipse;whiteSpace=wrap;html=1;aspect=fixed;fontStyle=0;fillColor=#cccccc;fontSize=15;" vertex="1" parent="1">
          <mxGeometry x="43.84201077199282" y="-994.926372881356" width="37.82611523631059" height="37.82611523631059" as="geometry" />
        </mxCell>
        <mxCell id="k9SnBp9OJjfPiYTVRjjW-7" style="rounded=0;orthogonalLoop=1;jettySize=auto;html=1;exitX=1;exitY=1;exitDx=0;exitDy=0;entryX=0.5;entryY=0;entryDx=0;entryDy=0;endArrow=blockThin;endFill=1;fillColor=#f8cecc;strokeColor=#000000;" edge="1" parent="1" source="k9SnBp9OJjfPiYTVRjjW-9" target="k9SnBp9OJjfPiYTVRjjW-10">
          <mxGeometry relative="1" as="geometry" />
        </mxCell>
        <mxCell id="k9SnBp9OJjfPiYTVRjjW-8" value="{2}" style="edgeLabel;html=1;align=center;verticalAlign=middle;resizable=0;points=[];fontSize=12;fontColor=#000000;" vertex="1" connectable="0" parent="k9SnBp9OJjfPiYTVRjjW-7">
          <mxGeometry x="-0.316" relative="1" as="geometry">
            <mxPoint y="2" as="offset" />
          </mxGeometry>
        </mxCell>
        <mxCell id="k9SnBp9OJjfPiYTVRjjW-9" value="X" style="ellipse;whiteSpace=wrap;html=1;aspect=fixed;fontStyle=0;fillColor=#cccccc;verticalAlign=middle;fontSize=15;" vertex="1" parent="1">
          <mxGeometry x="82.91879866530283" y="-921.9311265202465" width="40.37862091561939" height="40.37862091561939" as="geometry" />
        </mxCell>
        <mxCell id="k9SnBp9OJjfPiYTVRjjW-10" value="Y" style="ellipse;whiteSpace=wrap;html=1;aspect=fixed;fontStyle=0;fillColor=#f8cecc;strokeColor=#b85450;dashed=1;verticalAlign=middle;fontSize=15;spacingLeft=2;" vertex="1" parent="1">
          <mxGeometry x="124.4512941769725" y="-846.2496295710939" width="40.37862091561939" height="40.37862091561939" as="geometry" />
        </mxCell>
        <mxCell id="k9SnBp9OJjfPiYTVRjjW-11" value="z" style="ellipse;whiteSpace=wrap;html=1;aspect=fixed;fontStyle=0;verticalAlign=middle;spacingBottom=4;" vertex="1" parent="1">
          <mxGeometry x="175.0396065290008" y="-771.404412495504" width="24.344023863918444" height="24.344023863918444" as="geometry" />
        </mxCell>
        <mxCell id="k9SnBp9OJjfPiYTVRjjW-12" style="rounded=0;orthogonalLoop=1;jettySize=auto;html=1;exitX=1;exitY=1;exitDx=0;exitDy=0;entryX=0.5;entryY=0;entryDx=0;entryDy=0;endArrow=blockThin;endFill=1;fillColor=#f8cecc;strokeColor=#000000;" edge="1" parent="1">
          <mxGeometry relative="1" as="geometry">
            <mxPoint x="159.18121184919212" y="-811.7794576271186" as="sourcePoint" />
            <mxPoint x="186.5811220825853" y="-771.4006101694915" as="targetPoint" />
          </mxGeometry>
        </mxCell>
        <mxCell id="k9SnBp9OJjfPiYTVRjjW-13" value="{5}" style="edgeLabel;html=1;align=center;verticalAlign=middle;resizable=0;points=[];fontSize=12;fontColor=#000000;" vertex="1" connectable="0" parent="k9SnBp9OJjfPiYTVRjjW-12">
          <mxGeometry x="-0.2093" relative="1" as="geometry">
            <mxPoint as="offset" />
          </mxGeometry>
        </mxCell>
        <mxCell id="k9SnBp9OJjfPiYTVRjjW-14" style="rounded=0;orthogonalLoop=1;jettySize=auto;html=1;exitX=1;exitY=1;exitDx=0;exitDy=0;entryX=0.5;entryY=0;entryDx=0;entryDy=0;endArrow=blockThin;endFill=1;" edge="1" parent="1" source="k9SnBp9OJjfPiYTVRjjW-16" target="k9SnBp9OJjfPiYTVRjjW-19">
          <mxGeometry relative="1" as="geometry" />
        </mxCell>
        <mxCell id="k9SnBp9OJjfPiYTVRjjW-15" value="{5}" style="edgeLabel;html=1;align=center;verticalAlign=middle;resizable=0;points=[];fontSize=12;fontColor=#000000;" vertex="1" connectable="0" parent="k9SnBp9OJjfPiYTVRjjW-14">
          <mxGeometry x="-0.2944" relative="1" as="geometry">
            <mxPoint y="1" as="offset" />
          </mxGeometry>
        </mxCell>
        <mxCell id="k9SnBp9OJjfPiYTVRjjW-16" value="R" style="ellipse;whiteSpace=wrap;html=1;aspect=fixed;fontStyle=0;fillColor=#cccccc;fontSize=15;" vertex="1" parent="1">
          <mxGeometry x="260.15709156193896" y="-994.926372881356" width="37.82611523631059" height="37.82611523631059" as="geometry" />
        </mxCell>
        <mxCell id="k9SnBp9OJjfPiYTVRjjW-17" style="rounded=0;orthogonalLoop=1;jettySize=auto;html=1;exitX=1;exitY=1;exitDx=0;exitDy=0;entryX=0.5;entryY=0;entryDx=0;entryDy=0;endArrow=blockThin;endFill=1;fillColor=#f8cecc;strokeColor=#000000;" edge="1" parent="1" source="k9SnBp9OJjfPiYTVRjjW-19" target="k9SnBp9OJjfPiYTVRjjW-20">
          <mxGeometry relative="1" as="geometry">
            <mxPoint x="360.9557825073137" y="-846.2496295710939" as="targetPoint" />
          </mxGeometry>
        </mxCell>
        <mxCell id="k9SnBp9OJjfPiYTVRjjW-18" value="{2, 5}" style="edgeLabel;html=1;align=center;verticalAlign=middle;resizable=0;points=[];fontSize=12;fontColor=#000000;" vertex="1" connectable="0" parent="k9SnBp9OJjfPiYTVRjjW-17">
          <mxGeometry x="-0.316" relative="1" as="geometry">
            <mxPoint y="2" as="offset" />
          </mxGeometry>
        </mxCell>
        <mxCell id="k9SnBp9OJjfPiYTVRjjW-19" value="X" style="ellipse;whiteSpace=wrap;html=1;aspect=fixed;fontStyle=0;fillColor=#f8cecc;strokeColor=#b85450;dashed=1;verticalAlign=middle;fontSize=15;spacingLeft=1;" vertex="1" parent="1">
          <mxGeometry x="299.233879455249" y="-921.9311265202465" width="40.37862091561939" height="40.37862091561939" as="geometry" />
        </mxCell>
        <mxCell id="k9SnBp9OJjfPiYTVRjjW-20" value="z" style="ellipse;whiteSpace=wrap;html=1;aspect=fixed;fontStyle=0;verticalAlign=middle;spacingBottom=4;" vertex="1" parent="1">
          <mxGeometry x="349.5337716995573" y="-846.3937006310972" width="24.344023863918444" height="24.344023863918444" as="geometry" />
        </mxCell>
        <mxCell id="k9SnBp9OJjfPiYTVRjjW-21" value="{2, 5}" style="edgeLabel;html=1;align=center;verticalAlign=middle;resizable=0;points=[];fontSize=12;fontColor=#000000;" vertex="1" connectable="0" parent="1">
          <mxGeometry x="66.99696194755572" y="-713.7129725494241" as="geometry">
            <mxPoint x="3" as="offset" />
          </mxGeometry>
        </mxCell>
        <mxCell id="k9SnBp9OJjfPiYTVRjjW-22" value="&lt;font style=&quot;font-size: 13px;&quot;&gt;Cumuled edge length&lt;/font&gt;" style="text;html=1;align=center;verticalAlign=middle;whiteSpace=wrap;rounded=0;fontSize=13;" vertex="1" parent="1">
          <mxGeometry x="72.00293536804308" y="-735.3380677966102" width="162.95736086175944" height="43.26305084745763" as="geometry" />
        </mxCell>
        <mxCell id="k9SnBp9OJjfPiYTVRjjW-23" value="" style="ellipse;whiteSpace=wrap;html=1;aspect=fixed;fontStyle=0;fillColor=#f8cecc;strokeColor=#b85450;dashed=1;verticalAlign=top;" vertex="1" parent="1">
          <mxGeometry x="283.23070017953324" y="-728.8586101694916" width="30.298386622755835" height="30.298386622755835" as="geometry" />
        </mxCell>
        <mxCell id="k9SnBp9OJjfPiYTVRjjW-24" value="&lt;font style=&quot;font-size: 13px;&quot;&gt;Redundant internal node to delete&lt;br&gt;&lt;/font&gt;" style="text;html=1;align=center;verticalAlign=middle;whiteSpace=wrap;rounded=0;fontSize=13;" vertex="1" parent="1">
          <mxGeometry x="310.96481149012567" y="-735.3422711864407" width="177.37836624775585" height="43.26305084745763" as="geometry" />
        </mxCell>
        <mxCell id="k9SnBp9OJjfPiYTVRjjW-25" style="rounded=0;orthogonalLoop=1;jettySize=auto;html=1;exitX=1;exitY=1;exitDx=0;exitDy=0;entryX=0.5;entryY=0;entryDx=0;entryDy=0;endArrow=blockThin;endFill=1;" edge="1" parent="1" target="k9SnBp9OJjfPiYTVRjjW-28">
          <mxGeometry relative="1" as="geometry">
            <mxPoint x="718.6710909171943" y="-867.1003455380651" as="sourcePoint" />
            <mxPoint x="746.1410037419063" y="-826.3917501226226" as="targetPoint" />
          </mxGeometry>
        </mxCell>
        <mxCell id="k9SnBp9OJjfPiYTVRjjW-26" value="4" style="edgeLabel;html=1;align=center;verticalAlign=middle;resizable=0;points=[];fontSize=13;fontStyle=0" vertex="1" connectable="0" parent="k9SnBp9OJjfPiYTVRjjW-25">
          <mxGeometry x="-0.2944" relative="1" as="geometry">
            <mxPoint x="-1" as="offset" />
          </mxGeometry>
        </mxCell>
        <mxCell id="k9SnBp9OJjfPiYTVRjjW-27" value="R" style="ellipse;whiteSpace=wrap;html=1;aspect=fixed;fontStyle=0;fillColor=#cccccc;fontSize=15;" vertex="1" parent="1">
          <mxGeometry x="686.3843267504487" y="-899.3871355932204" width="37.82611523631059" height="37.82611523631059" as="geometry" />
        </mxCell>
        <mxCell id="k9SnBp9OJjfPiYTVRjjW-28" value="z" style="ellipse;whiteSpace=wrap;html=1;aspect=fixed;fontStyle=0;verticalAlign=middle;spacingBottom=4;" vertex="1" parent="1">
          <mxGeometry x="733.9689332794495" y="-826.3917501226226" width="24.344023863918444" height="24.344023863918444" as="geometry" />
        </mxCell>
        <mxCell id="k9SnBp9OJjfPiYTVRjjW-29" value="&lt;font style=&quot;font-size: 14px;&quot; color=&quot;#0f0000&quot;&gt;Remove redundant nodes and accumulate edge length&lt;/font&gt;" style="rounded=1;whiteSpace=wrap;html=1;container=0;fontColor=#CC0000;fontSize=14;" vertex="1" parent="1">
          <mxGeometry x="15" y="-672.2429830508474" width="552.3245062836625" height="70.66298305084744" as="geometry" />
        </mxCell>
        <mxCell id="k9SnBp9OJjfPiYTVRjjW-30" value="&lt;p style=&quot;line-height: 100%; font-size: 15px;&quot;&gt;a&lt;/p&gt;" style="ellipse;whiteSpace=wrap;html=1;aspect=fixed;verticalAlign=middle;fillColor=#d0cee2;strokeColor=#000000;spacing=0;fontSize=15;spacingBottom=5;" vertex="1" parent="1">
          <mxGeometry x="14" y="-673.2429830508474" width="25.95768487432675" height="25.95768487432675" as="geometry" />
        </mxCell>
        <mxCell id="k9SnBp9OJjfPiYTVRjjW-31" value="&lt;font style=&quot;font-size: 14px;&quot; color=&quot;#0f0000&quot;&gt;Average length of&lt;/font&gt;&lt;div style=&quot;font-size: 14px;&quot;&gt;&lt;font style=&quot;font-size: 14px;&quot; color=&quot;#0f0000&quot;&gt;removed edges&lt;/font&gt;&lt;/div&gt;" style="rounded=1;whiteSpace=wrap;html=1;container=0;fontColor=#CC0000;fontSize=14;" vertex="1" parent="1">
          <mxGeometry x="626.4506283662478" y="-672.2429830508474" width="191.79937163375223" height="70.66298305084744" as="geometry" />
        </mxCell>
        <mxCell id="k9SnBp9OJjfPiYTVRjjW-32" value="&lt;p style=&quot;line-height: 100%; font-size: 15px;&quot;&gt;b&lt;/p&gt;" style="ellipse;whiteSpace=wrap;html=1;aspect=fixed;verticalAlign=middle;fillColor=#d0cee2;strokeColor=#000000;spacing=0;fontSize=15;spacingBottom=4;spacingLeft=2;" vertex="1" parent="1">
          <mxGeometry x="625.4506283662478" y="-673.2429830508474" width="25.95768487432675" height="25.95768487432675" as="geometry" />
        </mxCell>
        <mxCell id="k9SnBp9OJjfPiYTVRjjW-33" style="rounded=0;orthogonalLoop=1;jettySize=auto;html=1;exitX=1;exitY=1;exitDx=0;exitDy=0;entryX=0.5;entryY=0;entryDx=0;entryDy=0;endArrow=blockThin;endFill=1;" edge="1" parent="1" target="k9SnBp9OJjfPiYTVRjjW-36">
          <mxGeometry relative="1" as="geometry">
            <mxPoint x="482.8011268238372" y="-962.6395828262008" as="sourcePoint" />
            <mxPoint x="510.27103964854905" y="-921.9309874107582" as="targetPoint" />
          </mxGeometry>
        </mxCell>
        <mxCell id="k9SnBp9OJjfPiYTVRjjW-34" value="{5, 2, 5}" style="edgeLabel;html=1;align=center;verticalAlign=middle;resizable=0;points=[];fontSize=12;fontColor=#000000;" vertex="1" connectable="0" parent="k9SnBp9OJjfPiYTVRjjW-33">
          <mxGeometry x="-0.2944" relative="1" as="geometry">
            <mxPoint y="2" as="offset" />
          </mxGeometry>
        </mxCell>
        <mxCell id="k9SnBp9OJjfPiYTVRjjW-35" value="R" style="ellipse;whiteSpace=wrap;html=1;aspect=fixed;fontStyle=0;fillColor=#cccccc;fontSize=15;" vertex="1" parent="1">
          <mxGeometry x="450.5143626570916" y="-994.926372881356" width="37.82611523631059" height="37.82611523631059" as="geometry" />
        </mxCell>
        <mxCell id="k9SnBp9OJjfPiYTVRjjW-36" value="z" style="ellipse;whiteSpace=wrap;html=1;aspect=fixed;fontStyle=0;verticalAlign=middle;spacingBottom=4;" vertex="1" parent="1">
          <mxGeometry x="498.09896918609235" y="-921.9309874107582" width="24.344023863918444" height="24.344023863918444" as="geometry" />
        </mxCell>
        <mxCell id="k9SnBp9OJjfPiYTVRjjW-37" value="" style="shape=flexArrow;endArrow=classic;html=1;rounded=0;endWidth=8.421052631578947;endSize=3.2982456140350878;width=5;strokeColor=default;fillColor=#030303;" edge="1" parent="1">
          <mxGeometry width="50" height="50" relative="1" as="geometry">
            <mxPoint x="384.65" y="-940" as="sourcePoint" />
            <mxPoint x="414.65" y="-940" as="targetPoint" />
            <Array as="points">
              <mxPoint x="394.65" y="-940" />
            </Array>
          </mxGeometry>
        </mxCell>
        <mxCell id="k9SnBp9OJjfPiYTVRjjW-38" value="" style="shape=flexArrow;endArrow=classic;html=1;rounded=0;endWidth=8.421052631578947;endSize=3.2982456140350878;width=5;strokeColor=default;fillColor=#030303;" edge="1" parent="1">
          <mxGeometry width="50" height="50" relative="1" as="geometry">
            <mxPoint x="174.15999999999997" y="-940" as="sourcePoint" />
            <mxPoint x="204.15999999999997" y="-940" as="targetPoint" />
            <Array as="points">
              <mxPoint x="184.15999999999997" y="-940" />
            </Array>
          </mxGeometry>
        </mxCell>
      </root>
    </mxGraphModel>
  </diagram>
</mxfile>
